<svg width="24" height="24" viewBox="0 0 24 24" fill="none" xmlns="http://www.w3.org/2000/svg">
<rect width="24" height="24" rx="12" fill="white"/>
<path d="M12.3304 4.7998C8.18884 4.7998 4.80029 8.18083 4.80029 12.345C4.80029 16.1101 7.55631 19.235 11.1557 19.7998V14.5287H9.24306V12.345H11.1557V10.6808C11.1557 8.79077 12.2777 7.75161 14.0021 7.75161C14.8229 7.75161 15.6813 7.89468 15.6813 7.89468V9.75462H14.7325C13.7988 9.75462 13.5051 10.3344 13.5051 10.9293V12.345H15.5985L15.2596 14.5287H13.5051V19.7998C15.2795 19.5195 16.8953 18.6142 18.0607 17.2471C19.2262 15.8801 19.8646 14.1414 19.8605 12.345C19.8605 8.18083 16.472 4.7998 12.3304 4.7998Z" fill="currentColor"/>
</svg>
